<?xml version="1.0" standalone="no"?>
<!DOCTYPE svg PUBLIC "-//W3C//DTD SVG 20010904//EN"
 "http://www.w3.org/TR/2001/REC-SVG-20010904/DTD/svg10.dtd">
<svg version="1.0" xmlns="http://www.w3.org/2000/svg"
 width="551.000000pt" height="120.000000pt" viewBox="0 0 551.000000 120.000000"
 preserveAspectRatio="xMidYMid meet">

<g transform="translate(0.000000,120.000000) scale(0.100000,-0.100000)"
fill="#000000" stroke="none">
<path d="M346 1083 c-3 -10 -28 -103 -56 -208 -27 -104 -57 -215 -65 -245 -8
-30 -38 -140 -65 -245 -28 -104 -53 -198 -56 -208 -5 -16 5 -17 156 -15 l162
3 53 213 c29 117 54 214 56 216 2 2 151 6 331 9 363 5 377 3 345 -47 l-17 -26
-156 0 c-110 0 -164 -4 -188 -14 -63 -26 -111 -121 -123 -241 -4 -51 -2 -64
15 -85 20 -25 22 -25 180 -25 153 0 162 1 184 23 26 23 38 21 38 -10 0 -16 10
-18 108 -18 l107 0 53 198 c59 226 64 277 28 319 l-24 28 -416 3 c-386 2 -416
4 -415 20 0 9 13 62 27 117 l27 100 200 5 199 5 12 40 c6 22 15 55 18 73 l8
32 -361 0 c-334 0 -360 -1 -365 -17z m825 -658 c4 -3 4 -18 -1 -33 -5 -15 -14
-45 -19 -68 -8 -28 -19 -44 -36 -52 -34 -16 -107 -15 -129 1 -15 11 -16 18 -6
62 17 72 44 93 121 94 34 0 65 -2 70 -4z"/>
<path d="M4695 888 c-4 -12 -58 -213 -146 -543 -17 -66 -35 -135 -39 -152 l-8
-33 124 0 123 0 11 37 c15 55 67 250 101 378 16 61 42 158 58 218 l29 107
-124 0 c-91 0 -126 -3 -129 -12z"/>
<path d="M3031 760 c-7 -27 -18 -50 -25 -50 -11 0 -106 -90 -106 -101 0 -2 17
-3 39 -1 21 2 41 0 44 -5 5 -8 -4 -48 -58 -253 -8 -30 -15 -71 -15 -91 0 -91
20 -99 249 -99 198 0 181 -6 196 67 l7 33 -89 0 c-48 0 -95 5 -103 10 -13 8
-11 24 14 122 16 62 36 136 45 163 l16 50 75 3 c69 3 76 5 92 30 10 15 25 37
34 50 l16 22 -96 0 -96 0 6 28 c4 15 11 37 15 50 l9 22 -128 0 -128 0 -13 -50z"/>
<path d="M3639 747 c-96 -27 -165 -83 -212 -171 -31 -58 -31 -174 1 -233 50
-96 121 -148 234 -173 61 -14 131 -6 202 24 l35 15 -33 50 c-19 28 -36 56 -38
63 -4 10 -10 10 -32 0 -42 -19 -126 -15 -164 8 -96 59 -96 200 0 261 26 16 46
19 98 17 106 -5 137 -38 178 -192 43 -157 94 -210 230 -242 109 -25 211 0 293
74 176 158 109 423 -123 493 -81 25 -151 21 -228 -12 l-49 -21 35 -48 c19 -26
34 -53 34 -60 0 -8 7 -10 23 -5 12 4 49 10 82 12 51 4 65 1 94 -19 55 -37 76
-73 76 -128 0 -55 -21 -91 -75 -127 -61 -42 -192 -26 -220 27 -6 10 -19 62
-29 115 -22 107 -48 152 -123 210 -79 62 -199 87 -289 62z"/>
<path d="M1551 688 c-5 -13 -27 -95 -51 -183 -23 -88 -50 -189 -60 -225 -10
-36 -21 -77 -24 -93 l-6 -27 123 0 123 0 33 138 c19 75 40 158 47 183 l14 46
95 37 c53 21 99 35 103 32 5 -6 -16 -95 -96 -418 -4 -16 6 -18 117 -18 l121 0
6 28 c3 15 12 47 19 72 7 25 30 110 50 189 43 162 41 198 -8 235 -27 20 -42
21 -313 24 l-284 2 -9 -22z"/>
<path d="M2271 677 c-24 -76 -31 -71 116 -77 l131 -5 -204 -217 -205 -218 335
0 334 0 11 50 c6 28 11 53 11 55 0 3 -63 6 -141 7 l-141 3 196 212 c108 116
196 214 196 218 0 3 -141 5 -314 5 l-315 -1 -10 -32z"/>
</g>
</svg>
